<svg width="34" height="34" viewBox="0 0 34 34" fill="none" xmlns="http://www.w3.org/2000/svg">
<path d="M2.95231 3.89724C3.04572 3.63145 3.24086 3.41363 3.49484 3.29169C3.74881 3.16975 4.04081 3.15367 4.30664 3.24699L4.73306 3.39716C5.60714 3.70457 6.34806 3.96524 6.93314 4.25141C7.55647 4.55882 8.09197 4.93566 8.49431 5.52499C8.89381 6.10866 9.05956 6.75041 9.13464 7.45449C9.1677 7.76899 9.18847 8.11749 9.19697 8.49999H24.2675C26.6546 8.49999 28.8036 8.49999 29.4326 9.31741C30.0616 10.1348 29.8151 11.3673 29.3236 13.8309L28.6152 17.2663C28.169 19.431 27.9466 20.5147 27.1646 21.1508C26.3826 21.7883 25.2776 21.7883 23.0661 21.7883H15.5536C11.6011 21.7883 9.62622 21.7883 8.39939 20.4935C7.17256 19.1987 7.08189 17.8245 7.08189 13.6567V9.97049C7.08189 8.92216 7.08189 8.22091 7.02239 7.68257C6.96572 7.16832 6.86797 6.91049 6.73906 6.72349C6.61581 6.54074 6.42739 6.36932 5.99672 6.15966C5.53914 5.93582 4.91722 5.71482 3.97089 5.38191L3.60256 5.25299C3.47066 5.20689 3.34915 5.13522 3.24498 5.0421C3.14081 4.94897 3.05604 4.83622 2.99551 4.71029C2.93498 4.58436 2.89988 4.44772 2.89222 4.30821C2.88457 4.16869 2.9045 4.02904 2.95089 3.89724" fill="black"/>
<path fill-rule="evenodd" clip-rule="evenodd" d="M22.0178 13.4824C22.1182 13.3822 22.1975 13.263 22.251 13.1317C22.3046 13.0004 22.3313 12.8597 22.3296 12.7179C22.3279 12.5761 22.2979 12.4361 22.2412 12.3061C22.1846 12.1761 22.1025 12.0587 21.9998 11.961C21.8971 11.8632 21.7759 11.787 21.6433 11.7368C21.5107 11.6866 21.3693 11.6634 21.2276 11.6687C21.0859 11.674 20.9467 11.7076 20.8182 11.7675C20.6897 11.8274 20.5745 11.9124 20.4793 12.0176L17.2012 15.4601L16.3512 14.5676C16.256 14.4624 16.1408 14.3774 16.0123 14.3175C15.8838 14.2576 15.7446 14.224 15.6029 14.2187C15.4612 14.2134 15.3198 14.2366 15.1872 14.2868C15.0546 14.337 14.9334 14.4132 14.8307 14.511C14.728 14.6087 14.6459 14.7261 14.5893 14.8561C14.5326 14.9861 14.5026 15.1261 14.5009 15.2679C14.4992 15.4097 14.5259 15.5504 14.5795 15.6817C14.633 15.813 14.7123 15.9322 14.8127 16.0324L16.4319 17.7324C16.5311 17.8366 16.6505 17.9195 16.7827 17.9761C16.915 18.0328 17.0573 18.062 17.2012 18.062C17.345 18.062 17.4874 18.0328 17.6196 17.9761C17.7518 17.9195 17.8712 17.8366 17.9704 17.7324L22.0178 13.4824Z" fill="#FF7B00"/>
<circle cx="14" cy="28" r="3" fill="black"/>
<circle cx="23" cy="28" r="3" fill="black"/>
</svg>
