<svg width="28" height="28" viewBox="0 0 28 28" fill="none" xmlns="http://www.w3.org/2000/svg">
<path d="M14 9.33331C14 9.33331 14 9.33331 14.8867 8.16665C15.9133 6.81331 17.43 5.83331 19.25 5.83331C22.155 5.83331 24.5 8.17831 24.5 11.0833C24.5 12.1683 24.1733 13.1716 23.6133 14C22.6683 15.4116 14 24.5 14 24.5C14 24.5 5.33167 15.4116 4.38667 14C3.82667 13.1716 3.5 12.1683 3.5 11.0833C3.5 8.17831 5.845 5.83331 8.75 5.83331C10.57 5.83331 12.0983 6.81331 13.1133 8.16665C14 9.33331 14 9.33331 14 9.33331Z" fill="#FF7B00"/>
<path d="M14 9.33331C14 9.33331 14 9.33331 13.1133 8.16665C12.0867 6.81331 10.57 5.83331 8.75 5.83331C5.845 5.83331 3.5 8.17831 3.5 11.0833C3.5 12.1683 3.82667 13.1716 4.38667 14C5.33167 15.4116 14 24.5 14 24.5M14 9.33331C14 9.33331 14 9.33331 14.8867 8.16665C15.9133 6.81331 17.43 5.83331 19.25 5.83331C22.155 5.83331 24.5 8.17831 24.5 11.0833C24.5 12.1683 24.1733 13.1716 23.6133 14C22.6683 15.4116 14 24.5 14 24.5" stroke="black" stroke-width="2" stroke-linecap="round" stroke-linejoin="round"/>
</svg>
