<svg width="28" height="28" viewBox="0 0 28 28" fill="none" xmlns="http://www.w3.org/2000/svg">
<path d="M14.0002 13.4167C13.2266 13.4167 12.4847 13.1094 11.9378 12.5624C11.3908 12.0155 11.0835 11.2736 11.0835 10.5C11.0835 9.72649 11.3908 8.98463 11.9378 8.43765C12.4847 7.89066 13.2266 7.58337 14.0002 7.58337C14.7737 7.58337 15.5156 7.89066 16.0626 8.43765C16.6095 8.98463 16.9168 9.72649 16.9168 10.5C16.9168 10.8831 16.8414 11.2623 16.6948 11.6162C16.5482 11.9701 16.3334 12.2916 16.0626 12.5624C15.7917 12.8333 15.4702 13.0481 15.1163 13.1947C14.7625 13.3413 14.3832 13.4167 14.0002 13.4167ZM14.0002 2.33337C11.8342 2.33337 9.757 3.19379 8.22546 4.72534C6.69391 6.25688 5.8335 8.33411 5.8335 10.5C5.8335 16.625 14.0002 25.6667 14.0002 25.6667C14.0002 25.6667 22.1668 16.625 22.1668 10.5C22.1668 8.33411 21.3064 6.25688 19.7749 4.72534C18.2433 3.19379 16.1661 2.33337 14.0002 2.33337Z" fill="black"/>
<ellipse cx="14" cy="10.5" rx="3" ry="3.5" fill="#FF7B00"/>
</svg>
