<svg width="28" height="28" viewBox="0 0 28 28" fill="none" xmlns="http://www.w3.org/2000/svg">
<path fill-rule="evenodd" clip-rule="evenodd" d="M18.6663 10.5C18.6663 11.7377 18.1747 12.9247 17.2995 13.7999C16.4243 14.675 15.2374 15.1667 13.9997 15.1667C12.762 15.1667 11.575 14.675 10.6998 13.7999C9.82467 12.9247 9.33301 11.7377 9.33301 10.5C9.33301 9.26236 9.82467 8.07538 10.6998 7.20021C11.575 6.32504 12.762 5.83337 13.9997 5.83337C15.2374 5.83337 16.4243 6.32504 17.2995 7.20021C18.1747 8.07538 18.6663 9.26236 18.6663 10.5ZM16.333 10.5C16.333 11.1189 16.0872 11.7124 15.6496 12.15C15.212 12.5875 14.6185 12.8334 13.9997 12.8334C13.3808 12.8334 12.7873 12.5875 12.3498 12.15C11.9122 11.7124 11.6663 11.1189 11.6663 10.5C11.6663 9.8812 11.9122 9.28771 12.3498 8.85013C12.7873 8.41254 13.3808 8.16671 13.9997 8.16671C14.6185 8.16671 15.212 8.41254 15.6496 8.85013C16.0872 9.28771 16.333 9.8812 16.333 10.5Z" fill="black"/>
<path fill-rule="evenodd" clip-rule="evenodd" d="M13.9998 1.16669C6.91234 1.16669 1.1665 6.91252 1.1665 14C1.1665 21.0875 6.91234 26.8334 13.9998 26.8334C21.0873 26.8334 26.8332 21.0875 26.8332 14C26.8332 6.91252 21.0873 1.16669 13.9998 1.16669ZM3.49984 14C3.49984 16.4384 4.33167 18.683 5.72584 20.4657C6.70519 19.1802 7.96835 18.1383 9.41675 17.4215C10.8651 16.7047 12.4596 16.3323 14.0757 16.3334C15.6709 16.3315 17.2456 16.694 18.6795 17.3931C20.1134 18.0923 21.3687 19.1097 22.3497 20.3677C23.3605 19.0419 24.0411 17.4944 24.3352 15.8534C24.6293 14.2123 24.5283 12.5248 24.0407 10.9305C23.5532 9.33619 22.6929 7.88091 21.5312 6.68506C20.3695 5.48922 18.9398 4.58719 17.3603 4.05361C15.7808 3.52004 14.0969 3.37025 12.448 3.61666C10.7991 3.86306 9.23259 4.49856 7.87807 5.47058C6.52354 6.44261 5.41995 7.7232 4.6586 9.20642C3.89726 10.6896 3.50005 12.3328 3.49984 14ZM13.9998 24.5C11.5894 24.5039 9.25167 23.6747 7.3825 22.1527C8.13478 21.0754 9.13623 20.1958 10.3016 19.5889C11.467 18.9819 12.7617 18.6656 14.0757 18.6667C15.3732 18.6656 16.6523 18.9741 17.8067 19.5666C18.961 20.1591 19.9573 21.0185 20.7128 22.0734C18.8292 23.6449 16.4529 24.5039 13.9998 24.5Z" fill="black"/>
<path fill-rule="evenodd" clip-rule="evenodd" d="M10 10C10 8.93913 10.4214 7.92172 11.1716 7.17157C11.9217 6.42143 12.9391 6 14 6C15.0609 6 16.0783 6.42143 16.8284 7.17157C17.5786 7.92172 18 8.93913 18 10C18 11.0609 17.5786 12.0783 16.8284 12.8284C16.0783 13.5786 15.0609 14 14 14C12.9391 14 11.9217 13.5786 11.1716 12.8284C10.4214 12.0783 10 11.0609 10 10ZM10 16C8.67392 16 7.40215 16.5268 6.46447 17.4645C5.52678 18.4021 5 19.6739 5 21C5 21.7956 5.31607 22.5587 5.87868 23.1213C6.44129 23.6839 7.20435 24 8 24H20C20.7956 24 21.5587 23.6839 22.1213 23.1213C22.6839 22.5587 23 21.7956 23 21C23 19.6739 22.4732 18.4021 21.5355 17.4645C20.5979 16.5268 19.3261 16 18 16H10Z" fill="black"/>
<path d="M12.8892 23.9962V24.7157" stroke="black" stroke-width="3" stroke-linecap="round"/>
<path d="M11.4502 23.0369C11.1399 23.161 11.0164 23.5297 10.8839 23.8131C10.7654 24.0664 10.6059 24.3205 10.5508 24.5959" stroke="black" stroke-width="3" stroke-linecap="round"/>
<path d="M17.3862 23.0369C17.0016 23.2292 16.7318 23.5934 16.4868 23.9363" stroke="black" stroke-width="3" stroke-linecap="round"/>
<path d="M14.5684 23.5765C14.5684 23.9392 14.7131 24.0458 14.8682 24.356" stroke="black" stroke-width="3" stroke-linecap="round"/>
</svg>
